<svg id="visual" viewBox="0 0 50 50" width="50" height="50" xmlns="http://www.w3.org/2000/svg" xmlns:xlink="http://www.w3.org/1999/xlink" version="1.1"><rect x="0" y="0" width="50" height="50" fill="#40E0D0"></rect><g transform="translate(27.397300275138303 32.12028862223013)"><path d="M16.7 -26.2C19.9 -23.9 19.5 -16.3 16.9 -11C14.3 -5.6 9.5 -2.5 9.3 1.6C9.1 5.7 13.6 10.7 13.3 12.2C13 13.7 7.9 11.6 4.5 10.5C1 9.3 -0.8 9 -3.2 9.1C-5.7 9.2 -8.9 9.9 -13.6 9.2C-18.3 8.5 -24.5 6.4 -23.7 4.1C-22.9 1.8 -15.1 -0.7 -12.9 -6.1C-10.8 -11.5 -14.3 -19.6 -13.1 -22.7C-11.9 -25.8 -5.9 -23.9 0.4 -24.6C6.8 -25.2 13.5 -28.4 16.7 -26.2" fill="#40E0D0"></path></g></svg>